<svg width="32" height="32" viewBox="0 0 32 32" fill="none" xmlns="http://www.w3.org/2000/svg">
<path d="M16 17H27C27.5523 17 28 16.5523 28 16C28 15.4477 27.5523 15 27 15H16C15.4477 15 15 15.4477 15 16C15 16.5523 15.4477 17 16 17Z" fill="#1C1C1C"/>
<path d="M16 9H27C27.5523 9 28 8.55228 28 8C28 7.44772 27.5523 7 27 7H16C15.4477 7 15 7.44772 15 8C15 8.55228 15.4477 9 16 9Z" fill="#1C1C1C"/>
<path d="M16 25H27C27.5523 25 28 24.5523 28 24C28 23.4477 27.5523 23 27 23H16C15.4477 23 15 23.4477 15 24C15 24.5523 15.4477 25 16 25Z" fill="#1C1C1C"/>
<path d="M12.1776 6.73539C12.1876 6.72625 12.1976 6.71664 12.2071 6.70711C12.3847 6.52946 12.489 6.29147 12.4992 6.04045L12.4992 6.03897C12.4997 6.02598 12.5 6.01299 12.5 6C12.5 5.74878 12.4054 5.50675 12.2351 5.32207C12.226 5.31216 12.2166 5.30243 12.2071 5.29289C12.0295 5.11525 11.7915 5.01098 11.5404 5.00082L11.539 5.00076C11.526 5.00025 11.513 5 11.5 5C11.2488 5 11.0068 5.09456 10.8221 5.26487L7.16348 8.63879L5.67898 7.26585C5.49418 7.09493 5.25172 7 4.99999 7C4.98699 7 4.97399 7.00025 4.96099 7.00076C4.69598 7.01111 4.44593 7.12631 4.26585 7.32102C4.09493 7.50582 4 7.74828 4 8C4 8.01301 4.00025 8.02601 4.00076 8.03901C4.01111 8.30402 4.12631 8.55407 4.32102 8.73415L6.48352 10.7342C6.86637 11.0882 7.45706 11.0887 7.84043 10.7351L12.1776 6.73539Z" fill="#1C1C1C"/>
<path d="M12.1776 14.7354C12.1876 14.7263 12.1976 14.7166 12.2071 14.7071C12.3847 14.5295 12.489 14.2915 12.4992 14.0404L12.4992 14.039C12.4997 14.026 12.5 14.013 12.5 14C12.5 13.7488 12.4054 13.5068 12.2351 13.3221C12.226 13.3122 12.2166 13.3024 12.2071 13.2929C12.0295 13.1153 11.7915 13.011 11.5404 13.0008L11.539 13.0008C11.526 13.0003 11.513 13 11.5 13C11.2488 13 11.0068 13.0946 10.8221 13.2649L7.16348 16.6388L5.67898 15.2658C5.49418 15.0949 5.25172 15 4.99999 15C4.98699 15 4.97399 15.0003 4.96099 15.0008C4.69598 15.0111 4.44593 15.1263 4.26585 15.321C4.09493 15.5058 4 15.7483 4 16C4 16.013 4.00025 16.026 4.00076 16.039C4.01111 16.304 4.12631 16.5541 4.32102 16.7342L6.48352 18.7342C6.86637 19.0882 7.45706 19.0887 7.84043 18.7351L12.1776 14.7354Z" fill="#1C1C1C"/>
<path d="M12.1776 22.7354C12.1876 22.7263 12.1976 22.7166 12.2071 22.7071C12.3847 22.5295 12.489 22.2915 12.4992 22.0404L12.4992 22.039C12.4997 22.026 12.5 22.013 12.5 22C12.5 21.7488 12.4054 21.5068 12.2351 21.3221C12.226 21.3122 12.2166 21.3024 12.2071 21.2929C12.0295 21.1152 11.7915 21.011 11.5404 21.0008L11.539 21.0008C11.526 21.0003 11.513 21 11.5 21C11.2488 21 11.0068 21.0946 10.8221 21.2649L7.16348 24.6388L5.67898 23.2658C5.49418 23.0949 5.25172 23 4.99999 23C4.98699 23 4.97399 23.0003 4.96099 23.0008C4.69598 23.0111 4.44593 23.1263 4.26585 23.321C4.09493 23.5058 4 23.7483 4 24C4 24.013 4.00025 24.026 4.00076 24.039C4.01111 24.304 4.12631 24.5541 4.32102 24.7342L6.48352 26.7342C6.86637 27.0882 7.45706 27.0887 7.84043 26.7351L12.1776 22.7354Z" fill="#1C1C1C"/>
</svg>
