<svg width="32" height="32" viewBox="0 0 32 32" fill="none" xmlns="http://www.w3.org/2000/svg">
<path d="M12.2425 5.97014C12.2535 5.96741 12.2643 5.9645 12.2752 5.9614C12.7042 5.83859 13 5.44631 13 5C13 4.91824 12.99 4.83679 12.9701 4.75747C12.9674 4.74654 12.9645 4.73567 12.9614 4.72484C12.8916 4.4811 12.7319 4.27295 12.5145 4.14251C12.4964 4.13167 12.478 4.1214 12.4593 4.11172C12.3173 4.03831 12.1598 4 12 4C11.9182 4 11.8368 4.01003 11.7575 4.02986L3.75746 6.02986C3.3123 6.14115 3 6.54113 3 7L3 25C3 25.5523 3.44772 26 4 26C4.08176 26 4.16322 25.99 4.24254 25.9701L12.2425 23.9701C12.6877 23.8589 13 23.4589 13 23L12.9999 22.9856C12.9988 22.9086 12.9888 22.8321 12.9701 22.7575C12.9058 22.5002 12.7419 22.279 12.5145 22.1425C12.3591 22.0493 12.1812 22 12 22H11.9988C11.9174 22.0001 11.8364 22.0101 11.7575 22.0299L5 23.7192V7.78078L12.2425 5.97014Z" fill="#1C1C1C"/>
<path fill-rule="evenodd" clip-rule="evenodd" d="M21 9V27C21 27.5523 20.5523 28 20 28C19.8448 28 19.6916 27.9639 19.5528 27.8944L11.5528 23.8944C11.214 23.725 11 23.3788 11 23V5C11 4.44772 11.4477 4 12 4C12.1552 4 12.3084 4.03615 12.4472 4.10557L20.4472 8.10557C20.786 8.27496 21 8.62123 21 9ZM19 25.382V9.61803L13 6.61803V22.382L19 25.382Z" fill="#1C1C1C"/>
<path d="M27 24.2192L19.758 26.0297C19.3128 26.141 19 26.5411 19 27L19.0001 27.0144C19.0012 27.0914 19.0112 27.1679 19.0299 27.2425C19.0942 27.4998 19.2581 27.721 19.4855 27.8575C19.6409 27.9507 19.8188 28 20 28H20.0012C20.0826 27.9999 20.1636 27.9899 20.2425 27.9701L28.2425 25.9701C28.6877 25.8589 29 25.4589 29 25V7C29 6.44772 28.5523 6 28 6C27.9182 6 27.8368 6.01003 27.7575 6.02986L19.7576 8.02981C19.3123 8.14115 19 8.54113 19 9L19.0001 9.01444C19.0012 9.09136 19.0112 9.1679 19.0299 9.24254C19.1411 9.6877 19.5411 10 20 10L20.0144 9.9999C20.0914 9.99879 20.1679 9.9888 20.2425 9.97014L27 8.28078V24.2192Z" fill="#1C1C1C"/>
</svg>
