<svg width="32" height="32" viewBox="0 0 32 32" fill="none" xmlns="http://www.w3.org/2000/svg">
<path fill-rule="evenodd" clip-rule="evenodd" d="M28.7071 8.70711L16.7071 20.7071C16.5196 20.8946 16.2652 21 16 21H12C11.4477 21 11 20.5523 11 20V16C11 15.7348 11.1054 15.4804 11.2929 15.2929L23.2929 3.29289C23.4804 3.10536 23.7348 3 24 3C24.2652 3 24.5196 3.10536 24.7071 3.29289L28.7071 7.29289C29.0976 7.68342 29.0976 8.31658 28.7071 8.70711ZM24 5.41421L26.5858 8L15.5858 19H13V16.4142L24 5.41421Z" fill="#1C1C1C"/>
<path d="M24.2926 11.7068C24.4801 11.8943 24.7348 12 25 12C25.0173 12 25.0345 11.9996 25.0517 11.9987C25.2987 11.9859 25.5322 11.882 25.7071 11.7071C25.8946 11.5196 26 11.2652 26 11C26 10.7348 25.8946 10.4804 25.7071 10.2929L21.7071 6.29289C21.5196 6.10536 21.2652 6 21 6C20.7348 6 20.4804 6.10536 20.2929 6.29289C20.1054 6.48043 20 6.73478 20 7C20 7.26522 20.1054 7.51957 20.2929 7.70711L24.2926 11.7068Z" fill="#1C1C1C"/>
<path d="M6 6H17C17.5523 6 18 5.55228 18 5C18 4.44772 17.5523 4 17 4H6C5.17157 4 4.58579 4.58579 4.58579 4.58579C4 5.17157 4 6 4 6V26C4 26.8284 4.58579 27.4142 4.58579 27.4142C5.17157 28 6 28 6 28H26C26.8284 28 27.4142 27.4142 27.4142 27.4142C28 26.8284 28 26 28 26V15C28 14.4477 27.5523 14 27 14C26.4477 14 26 14.4477 26 15V26H6V6Z" fill="#1C1C1C"/>
</svg>
