<svg width="32" height="32" viewBox="0 0 32 32" fill="none" xmlns="http://www.w3.org/2000/svg">
<path d="M25.1125 24H29C29.5523 24 30 23.5523 30 23C30 22.4477 29.5523 22 29 22H25.1125C23.4205 21.9979 21.9155 21.2222 21.9155 21.2222C20.4104 20.4466 19.4262 19.0688 19.4262 19.0688L14.2007 11.768C12.9359 9.99729 11.0008 8.99998 11.0008 8.99998C9.06569 8.00267 6.88873 8 6.88873 8L4 8C3.44772 8 3 8.44772 3 9C3 9.55228 3.44772 10 4 10L6.88627 10C8.57947 10.0021 10.0845 10.7778 10.0845 10.7778C11.5896 11.5535 12.5743 12.932 12.5743 12.932L17.7988 20.2312C19.0641 22.0027 20.9992 23 20.9992 23C22.9343 23.9973 25.1125 24 25.1125 24Z" fill="#1C1C1C"/>
<path d="M25.2933 11.2925C25.1057 11.4801 25 11.7348 25 12C25 12.016 25.0004 12.032 25.0012 12.048C25.0131 12.2964 25.1171 12.5313 25.2929 12.7071C25.4804 12.8946 25.7348 13 26 13C26.2652 13 26.5196 12.8946 26.7071 12.7071L29.7071 9.70711C30.0976 9.31658 30.0976 8.68342 29.7071 8.29289L26.7072 5.29301C26.5196 5.10536 26.2652 5 26 5C25.7348 5 25.4804 5.10536 25.2929 5.29289C25.1054 5.48043 25 5.73478 25 6C25 6.26522 25.1054 6.51957 25.2929 6.70711L27.5858 9L25.2933 11.2925Z" fill="#1C1C1C"/>
<path d="M25.2933 25.2925C25.1057 25.4801 25 25.7348 25 26C25 26.016 25.0004 26.032 25.0012 26.048C25.0131 26.2964 25.1171 26.5313 25.2929 26.7071C25.4804 26.8946 25.7348 27 26 27C26.2652 27 26.5196 26.8946 26.7071 26.7071L29.7071 23.7071C30.0976 23.3166 30.0976 22.6834 29.7071 22.2929L26.7072 19.293C26.5196 19.1054 26.2652 19 26 19C25.7348 19 25.4804 19.1054 25.2929 19.2929C25.1054 19.4804 25 19.7348 25 20C25 20.2652 25.1054 20.5196 25.2929 20.7071L27.5858 23L25.2933 25.2925Z" fill="#1C1C1C"/>
<path d="M25.1125 10H29C29.5523 10 30 9.55228 30 9C30 8.44772 29.5523 8 29 8H25.1125C22.9343 8.00267 20.9992 8.99998 20.9992 8.99998C19.0641 9.9973 17.7988 11.7688 17.7988 11.7688L17.6456 11.9858C17.5264 12.1545 17.4625 12.356 17.4625 12.5625C17.4625 12.5849 17.4632 12.6073 17.4648 12.6297C17.485 12.9303 17.6397 13.2057 17.8858 13.3795C18.0545 13.4986 18.256 13.5625 18.4625 13.5625C18.5191 13.5625 18.5766 13.5576 18.6324 13.548C18.8938 13.5029 19.1265 13.3559 19.2795 13.1392L19.4262 12.9312C20.4104 11.5535 21.9155 10.7778 21.9155 10.7778C23.4205 10.0021 25.1125 10 25.1125 10Z" fill="#1C1C1C"/>
<path d="M14.3541 20.0147C14.4732 19.846 14.5375 19.644 14.5375 19.4375C14.5375 19.4151 14.5367 19.3927 14.5352 19.3703C14.515 19.0697 14.3603 18.7943 14.1142 18.6205C13.9455 18.5014 13.744 18.4375 13.5375 18.4375C13.4809 18.4375 13.4234 18.4424 13.3676 18.452C13.1062 18.4971 12.8735 18.6441 12.7205 18.8608L12.5705 19.0733C11.5896 20.4466 10.0845 21.2222 10.0845 21.2222C8.57947 21.9979 6.88627 22 6.88627 22H4C3.44772 22 3 22.4477 3 23C3 23.5523 3.44772 24 4 24H6.88873C9.06569 23.9973 11.0008 23 11.0008 23C12.9359 22.0027 14.2045 20.2267 14.2045 20.2267L14.3541 20.0147Z" fill="#1C1C1C"/>
</svg>
