<svg width="32" height="32" viewBox="0 0 32 32" fill="none" xmlns="http://www.w3.org/2000/svg">
<path fill-rule="evenodd" clip-rule="evenodd" d="M16 4C16 4 18.4407 4 20.6712 4.94343C20.6712 4.94343 22.8249 5.85436 24.4853 7.51472C24.4853 7.51472 26.1456 9.17508 27.0566 11.3288C27.0566 11.3288 28 13.5593 28 16C28 16 28 18.4407 27.0566 20.6712C27.0566 20.6712 26.1456 22.8249 24.4853 24.4853C24.4853 24.4853 22.8249 26.1456 20.6712 27.0566C20.6712 27.0566 18.4407 28 16 28C16 28 13.5593 28 11.3288 27.0566C11.3288 27.0566 9.17508 26.1456 7.51472 24.4853C7.51472 24.4853 5.85436 22.8249 4.94343 20.6712C4.94343 20.6712 4 18.4407 4 16C4 16 4 13.5593 4.94343 11.3288C4.94343 11.3288 5.85436 9.17508 7.51472 7.51472C7.51472 7.51472 9.17508 5.85436 11.3288 4.94343C11.3288 4.94343 13.5593 4 16 4ZM16 6C16 6 13.9648 6 12.1079 6.78544C12.1079 6.78544 10.3135 7.5444 8.92893 8.92893C8.92893 8.92893 7.5444 10.3135 6.78544 12.1079C6.78544 12.1079 6 13.9648 6 16C6 16 6 18.0352 6.78544 19.8921C6.78544 19.8921 7.5444 21.6865 8.92893 23.0711C8.92893 23.0711 10.3135 24.4556 12.1079 25.2146C12.1079 25.2146 13.9648 26 16 26C16 26 18.0352 26 19.8921 25.2146C19.8921 25.2146 21.6865 24.4556 23.0711 23.0711C23.0711 23.0711 24.4556 21.6865 25.2146 19.8921C25.2146 19.8921 26 18.0352 26 16C26 16 26 13.9648 25.2146 12.1079C25.2146 12.1079 24.4556 10.3135 23.0711 8.92893C23.0711 8.92893 21.6865 7.5444 19.8921 6.78544C19.8921 6.78544 18.0352 6 16 6Z" fill="#1C1C1C"/>
<path d="M15 2.5V7.5C15 8.05228 15.4477 8.5 16 8.5C16.5523 8.5 17 8.05228 17 7.5V2.5C17 1.94772 16.5523 1.5 16 1.5C15.4477 1.5 15 1.94772 15 2.5Z" fill="#1C1C1C"/>
<path d="M2.5 17H7.5C8.05228 17 8.5 16.5523 8.5 16C8.5 15.4477 8.05228 15 7.5 15H2.5C1.94772 15 1.5 15.4477 1.5 16C1.5 16.5523 1.94772 17 2.5 17Z" fill="#1C1C1C"/>
<path d="M17 29.5V24.5C17 23.9477 16.5523 23.5 16 23.5C15.4477 23.5 15 23.9477 15 24.5V29.5C15 30.0523 15.4477 30.5 16 30.5C16.5523 30.5 17 30.0523 17 29.5Z" fill="#1C1C1C"/>
<path d="M29.5 15H24.5C23.9477 15 23.5 15.4477 23.5 16C23.5 16.5523 23.9477 17 24.5 17H29.5C30.0523 17 30.5 16.5523 30.5 16C30.5 15.4477 30.0523 15 29.5 15Z" fill="#1C1C1C"/>
<path fill-rule="evenodd" clip-rule="evenodd" d="M16 11C16 11 18.0711 11 19.5355 12.4645C19.5355 12.4645 21 13.9289 21 16C21 16 21 18.0711 19.5355 19.5355C19.5355 19.5355 18.0711 21 16 21C16 21 13.9289 21 12.4645 19.5355C12.4645 19.5355 11 18.0711 11 16C11 16 11 13.9289 12.4645 12.4645C12.4645 12.4645 13.9289 11 16 11ZM16 13C16 13 14.7574 13 13.8787 13.8787C13.8787 13.8787 13 14.7574 13 16C13 16 13 17.2426 13.8787 18.1213C13.8787 18.1213 14.7574 19 16 19C16 19 17.2426 19 18.1213 18.1213C18.1213 18.1213 19 17.2426 19 16C19 16 19 14.7574 18.1213 13.8787C18.1213 13.8787 17.2426 13 16 13Z" fill="#1C1C1C"/>
</svg>
