<svg width="32" height="32" viewBox="0 0 32 32" fill="none" xmlns="http://www.w3.org/2000/svg">
<path fill-rule="evenodd" clip-rule="evenodd" d="M8.80901 21.3665C8.80901 21.3665 9.41981 19.3064 10.9996 17.9066V6C10.9996 6 10.9996 3.92893 12.4641 2.46447C12.4641 2.46447 13.9285 1 15.9996 1C15.9996 1 18.0707 1 19.5351 2.46447C19.5351 2.46447 20.9996 3.92893 20.9996 6V17.9066C20.9996 17.9066 22.5794 19.3064 23.1902 21.3665C23.1902 21.3665 23.8728 23.6685 23.0914 25.939C23.0914 25.939 22.3101 28.2094 20.3554 29.604C20.3554 29.604 18.4007 30.9985 15.9996 30.9985C15.9996 30.9985 13.5985 30.9985 11.6438 29.604C11.6438 29.604 9.68911 28.2094 8.90778 25.939C8.90778 25.939 8.12645 23.6685 8.80901 21.3665ZM12.615 19.1632C12.615 19.1632 11.227 20.2468 10.7265 21.935C10.7265 21.935 10.226 23.6232 10.7989 25.2882C10.7989 25.2882 11.3719 26.9532 12.8053 27.9758C12.8053 27.9758 14.2388 28.9985 15.9996 28.9985C15.9996 28.9985 17.7604 28.9985 19.1939 27.9758C19.1939 27.9758 20.6273 26.9532 21.2003 25.2882C21.2003 25.2882 21.7732 23.6232 21.2727 21.935C21.2727 21.935 20.7721 20.2468 19.3842 19.1632C19.1415 18.9737 18.9996 18.6829 18.9996 18.375V6C18.9996 6 18.9996 4.75736 18.1209 3.87868C18.1209 3.87868 17.2422 3 15.9996 3C15.9996 3 14.757 3 13.8783 3.87868C13.8783 3.87868 12.9996 4.75736 12.9996 6V18.375C12.9996 18.6763 12.8638 18.9615 12.6299 19.1514L12.615 19.1632Z" fill="#1C1C1C"/>
<path fill-rule="evenodd" clip-rule="evenodd" d="M15.9996 20C15.9996 20 17.4494 20 18.4745 21.0251C18.4745 21.0251 19.4996 22.0503 19.4996 23.5C19.4996 23.5 19.4996 24.9497 18.4745 25.9749C18.4745 25.9749 17.4494 27 15.9996 27C15.9996 27 14.5499 27 13.5248 25.9749C13.5248 25.9749 12.4996 24.9497 12.4996 23.5C12.4996 23.5 12.4996 22.0503 13.5248 21.0251C13.5248 21.0251 14.5499 20 15.9996 20ZM15.9996 22C15.9996 22 15.3783 22 14.939 22.4393C14.939 22.4393 14.4996 22.8787 14.4996 23.5C14.4996 23.5 14.4996 24.1213 14.939 24.5607C14.939 24.5607 15.3783 25 15.9996 25C15.9996 25 16.621 25 17.0603 24.5607C17.0603 24.5607 17.4996 24.1213 17.4996 23.5C17.4996 23.5 17.4996 22.8787 17.0603 22.4393C17.0603 22.4393 16.621 22 15.9996 22Z" fill="#1C1C1C"/>
<path d="M16.9996 21V11C16.9996 10.4477 16.5519 10 15.9996 10C15.4473 10 14.9996 10.4477 14.9996 11V21C14.9996 21.5523 15.4473 22 15.9996 22C16.5519 22 16.9996 21.5523 16.9996 21Z" fill="#1C1C1C"/>
</svg>
