<svg width="32" height="32" viewBox="0 0 32 32" fill="none" xmlns="http://www.w3.org/2000/svg">
<path fill-rule="evenodd" clip-rule="evenodd" d="M7 5C7 5 7 4.17157 7.58579 3.58579C7.58579 3.58579 8.17157 3 9 3H23C23 3 23.8284 3 24.4142 3.58579C24.4142 3.58579 25 4.17157 25 5V27C25 27 25 27.8284 24.4142 28.4142C24.4142 28.4142 23.8284 29 23 29H9C9 29 8.17157 29 7.58579 28.4142C7.58579 28.4142 7 27.8284 7 27V5ZM9 5V27H23L23 5H9Z" fill="#1C1C1C"/>
<path fill-rule="evenodd" clip-rule="evenodd" d="M16 7C16 7 17.6569 7 18.8284 8.17157C18.8284 8.17157 20 9.34315 20 11C20 11 20 12.6569 18.8284 13.8284C18.8284 13.8284 17.6569 15 16 15C16 15 14.3431 15 13.1716 13.8284C13.1716 13.8284 12 12.6569 12 11C12 11 12 9.34315 13.1716 8.17157C13.1716 8.17157 14.3431 7 16 7ZM16 9C16 9 15.1716 9 14.5858 9.58579C14.5858 9.58579 14 10.1716 14 11C14 11 14 11.8284 14.5858 12.4142C14.5858 12.4142 15.1716 13 16 13C16 13 16.8284 13 17.4142 12.4142C17.4142 12.4142 18 11.8284 18 11C18 11 18 10.1716 17.4142 9.58579C17.4142 9.58579 16.8284 9 16 9Z" fill="#1C1C1C"/>
<path fill-rule="evenodd" clip-rule="evenodd" d="M16 17C16 17 17.6569 17 18.8284 18.1716C18.8284 18.1716 20 19.3431 20 21C20 21 20 22.6569 18.8284 23.8284C18.8284 23.8284 17.6569 25 16 25C16 25 14.3431 25 13.1716 23.8284C13.1716 23.8284 12 22.6569 12 21C12 21 12 19.3431 13.1716 18.1716C13.1716 18.1716 14.3431 17 16 17ZM16 19C16 19 15.1716 19 14.5858 19.5858C14.5858 19.5858 14 20.1716 14 21C14 21 14 21.8284 14.5858 22.4142C14.5858 22.4142 15.1716 23 16 23C16 23 16.8284 23 17.4142 22.4142C17.4142 22.4142 18 21.8284 18 21C18 21 18 20.1716 17.4142 19.5858C17.4142 19.5858 16.8284 19 16 19Z" fill="#1C1C1C"/>
<path d="M24 10H27C27.5523 10 28 9.55228 28 9C28 8.44772 27.5523 8 27 8H24C23.4477 8 23 8.44772 23 9C23 9.55228 23.4477 10 24 10Z" fill="#1C1C1C"/>
<path d="M24 20H27C27.5523 20 28 19.5523 28 19C28 18.4477 27.5523 18 27 18H24C23.4477 18 23 18.4477 23 19C23 19.5523 23.4477 20 24 20Z" fill="#1C1C1C"/>
<path d="M5 10H8C8.55228 10 9 9.55228 9 9C9 8.44772 8.55228 8 8 8H5C4.44772 8 4 8.44772 4 9C4 9.55228 4.44772 10 5 10Z" fill="#1C1C1C"/>
<path d="M5 20H8C8.55228 20 9 19.5523 9 19C9 18.4477 8.55228 18 8 18H5C4.44772 18 4 18.4477 4 19C4 19.5523 4.44772 20 5 20Z" fill="#1C1C1C"/>
</svg>
